<?xml version="1.0" standalone="no"?>
<!DOCTYPE svg PUBLIC "-//W3C//DTD SVG 20010904//EN"
 "http://www.w3.org/TR/2001/REC-SVG-20010904/DTD/svg10.dtd">
<svg version="1.0" xmlns="http://www.w3.org/2000/svg"
 width="13.000000pt" height="19.000000pt" viewBox="0 0 13.000000 19.000000"
 preserveAspectRatio="xMidYMid meet">

<g transform="translate(0.000000,19.000000) scale(0.100000,-0.100000)"
fill="#000000" stroke="none">
<path d="M7 184 c-10 -11 -9 -184 2 -184 5 0 14 7 22 16 12 14 14 14 25 -1 15
-21 44 -13 44 11 0 9 8 23 18 30 15 12 12 18 -43 74 -34 33 -64 58 -68 54z
m93 -112 c-16 -3 -19 -9 -15 -30 l6 -27 -17 23 c-16 21 -18 22 -35 6 -18 -17
-19 -15 -19 57 l0 73 51 -49 c43 -43 47 -50 29 -53z"/>
</g>
</svg>
