<?xml version="1.0" standalone="no"?>
<!DOCTYPE svg PUBLIC "-//W3C//DTD SVG 20010904//EN"
 "http://www.w3.org/TR/2001/REC-SVG-20010904/DTD/svg10.dtd">
<svg version="1.0" xmlns="http://www.w3.org/2000/svg"
 width="18.000000pt" height="22.000000pt" viewBox="0 0 18.000000 22.000000"
 preserveAspectRatio="xMidYMid meet">

<g transform="translate(0.000000,22.000000) scale(0.100000,-0.100000)"
fill="#000000" stroke="none">
<path d="M52 208 c-7 -7 -12 -24 -12 -39 0 -18 -6 -28 -20 -32 -25 -6 -26 -30
-2 -65 9 -15 22 -36 28 -47 8 -15 23 -21 58 -23 42 -3 47 -1 57 25 7 15 12 46
13 68 1 38 -1 41 -41 60 -26 11 -43 27 -45 39 -4 24 -20 30 -36 14z m29 -45
c1 -27 4 -38 6 -25 2 12 9 22 14 22 5 0 10 -10 10 -22 1 -17 2 -19 6 -5 6 22
23 22 24 0 0 -11 3 -13 6 -5 7 19 23 4 23 -22 0 -13 -5 -37 -11 -55 -10 -27
-15 -31 -48 -31 -35 0 -40 4 -56 40 -10 22 -22 40 -27 40 -4 0 -8 7 -8 15 0
23 19 18 30 -7 7 -18 9 -8 9 40 1 72 20 85 22 15z"/>
</g>
</svg>
